<svg width="23" height="16" viewBox="0 0 23 16" fill="none" xmlns="http://www.w3.org/2000/svg">
<path d="M22.3888 2.51556C22.2587 2.03301 22.0046 1.59293 21.6516 1.23914C21.2986 0.885341 20.8591 0.630165 20.3768 0.499009C18.5886 0.00800153 11.4348 8.67429e-06 11.4348 8.67429e-06C11.4348 8.67429e-06 4.28204 -0.00798468 2.49272 0.461327C2.01076 0.598519 1.57216 0.857304 1.21903 1.21284C0.865898 1.56837 0.61009 2.00871 0.476165 2.49159C0.00456941 4.27976 1.67302e-06 7.98858 1.67302e-06 7.98858C1.67302e-06 7.98858 -0.00456582 11.7157 0.463604 13.4856C0.726236 14.4642 1.497 15.2372 2.47673 15.501C4.28318 15.992 11.4176 16 11.4176 16C11.4176 16 18.5715 16.008 20.3597 15.5398C20.8421 15.4089 21.282 15.1543 21.6359 14.8012C21.9898 14.4482 22.2454 14.0088 22.3774 13.5267C22.8501 11.7396 22.8535 8.03197 22.8535 8.03197C22.8535 8.03197 22.8764 4.30374 22.3888 2.51556ZM9.14644 11.4245L9.15215 4.57323L15.0979 8.00457L9.14644 11.4245Z" fill="white"/>
</svg>
